<svg version="1.1" viewBox="0.0 0.0 79.74803149606299 79.74803149606299" fill="none" stroke="none" stroke-linecap="square" stroke-miterlimit="10" xmlns:xlink="http://www.w3.org/1999/xlink" xmlns="http://www.w3.org/2000/svg"><clipPath id="p.0"><path d="m0 0l79.74803 0l0 79.74803l-79.74803 0l0 -79.74803z" clip-rule="nonzero"/></clipPath><g clip-path="url(#p.0)"><path fill="#000000" fill-opacity="0.0" d="m0 0l79.74803 0l0 79.74803l-79.74803 0z" fill-rule="evenodd"/><path fill="#000000" fill-opacity="0.0" d="m22.551182 41.464565l0 0c0 -10.436876 8.46076 -18.897636 18.897636 -18.897636l0 0c5.0119667 0 9.818653 1.9909954 13.362648 5.5349903c3.543995 3.543995 5.534992 8.350683 5.534992 13.362646l0 0c0 10.436878 -8.460762 18.89764 -18.89764 18.89764l0 0c-10.436876 0 -18.897636 -8.460762 -18.897636 -18.89764z" fill-rule="evenodd"/><path stroke="#f4d35e" stroke-width="8.0" stroke-linejoin="round" stroke-linecap="butt" d="m22.551182 41.464565l0 0c0 -10.436876 8.46076 -18.897636 18.897636 -18.897636l0 0c5.0119667 0 9.818653 1.9909954 13.362648 5.5349903c3.543995 3.543995 5.534992 8.350683 5.534992 13.362646l0 0c0 10.436878 -8.460762 18.89764 -18.89764 18.89764l0 0c-10.436876 0 -18.897636 -8.460762 -18.897636 -18.89764z" fill-rule="evenodd"/><path fill="#f4d35e" d="m77.85827 5.133858l0 0c1.4785538 1.4785576 1.4726868 3.8698773 -0.0131073 5.341162l-10.745445 10.64051l0 0c-0.713501 0.70653725 -1.6798401 1.1020775 -2.686432 1.0996075c-1.006588 -0.0024700165 -1.970974 -0.4027462 -2.6809998 -1.1127758l0 0l0 0c-1.4785576 -1.4785576 -1.4726906 -3.8698769 0.013103485 -5.3411617l10.745441 -10.640511c1.4858017 -1.4712849 3.8888779 -1.4653893 5.3674393 0.013168335z" fill-rule="evenodd"/><path fill="#f4d35e" d="m21.149607 61.82677l0 0c1.4785576 1.4785576 1.473856 3.8710518 -0.010498047 5.343792l-10.719161 10.635254l0 0c-0.7128134 0.7072296 -1.6784887 1.1034393 -2.6845894 1.1014633c-1.0061007 -0.0019760132 -1.9702115 -0.40197754 -2.6802402 -1.1120071l0 0l0 0c-1.4785576 -1.4785538 -1.4738572 -3.871048 0.010498524 -5.343788l10.71916 -10.635254c1.4843559 -1.4727364 3.8862724 -1.4680176 5.36483 0.010540009z" fill-rule="evenodd"/><path fill="#f4d35e" d="m5.11811 5.055118l0 0c1.4785576 -1.4785576 3.8698773 -1.4726908 5.341162 0.013103962l10.640511 10.745446l0 0c0.70653534 0.71350384 1.1020756 1.679841 1.0996056 2.686431c-0.0024681091 1.0065899 -0.4027462 1.970974 -1.1127739 2.6810036l0 0l0 0c-1.4785576 1.4785576 -3.8698788 1.4726906 -5.3411627 -0.013103485l-10.640511 -10.745446c-1.4712849 -1.485795 -1.4653893 -3.8888774 0.013168335 -5.367435z" fill-rule="evenodd"/><path fill="#f4d35e" d="m61.811024 61.74803l0 0c1.4785576 -1.4785576 3.8698769 -1.4726906 5.34116 0.013103485l10.640511 10.745449l0 0c0.70653534 0.713501 1.1020813 1.6798401 1.0996094 2.686432c-0.0024719238 1.0065842 -0.4027481 1.9709702 -1.1127777 2.6809998l0 0l0 0c-1.4785538 1.4785538 -3.869873 1.4726944 -5.3411636 -0.0131073l-10.640507 -10.745445c-1.4712868 -1.4857941 -1.4653893 -3.888874 0.013168335 -5.3674316z" fill-rule="evenodd"/><path fill="#000000" fill-opacity="0.0" d="m19.385826 38.283466l0 0c0 -10.436878 8.460762 -18.89764 18.89764 -18.89764l0 0c5.011963 0 9.818653 1.9909954 13.362644 5.5349903c3.543995 3.543995 5.534992 8.350683 5.534992 13.36265l0 0c0 10.436874 -8.460762 18.897636 -18.897636 18.897636l0 0c-10.436878 0 -18.89764 -8.460762 -18.89764 -18.897636z" fill-rule="evenodd"/><path stroke="#0d3b66" stroke-width="8.0" stroke-linejoin="round" stroke-linecap="butt" d="m19.385826 38.283466l0 0c0 -10.436878 8.460762 -18.89764 18.89764 -18.89764l0 0c5.011963 0 9.818653 1.9909954 13.362644 5.5349903c3.543995 3.543995 5.534992 8.350683 5.534992 13.36265l0 0c0 10.436874 -8.460762 18.897636 -18.897636 18.897636l0 0c-10.436878 0 -18.89764 -8.460762 -18.89764 -18.897636z" fill-rule="evenodd"/><path fill="#0d3b66" d="m74.69292 1.9527559l0 0c1.4785538 1.4785576 1.4726868 3.8698773 -0.0131073 5.341162l-10.745445 10.640509l0 0c-0.7135048 0.70653725 -1.6798439 1.1020775 -2.686432 1.0996075c-1.006588 -0.0024700165 -1.970974 -0.4027462 -2.6810036 -1.1127758l0 0l0 0c-1.4785576 -1.4785576 -1.4726906 -3.8698769 0.013103485 -5.3411617l10.745445 -10.64051c1.4857941 -1.4712849 3.8888779 -1.4653893 5.3674393 0.013168335z" fill-rule="evenodd"/><path fill="#0d3b66" d="m17.984251 58.645668l0 0c1.4785595 1.4785576 1.4738579 3.8710556 -0.010498047 5.343792l-10.71916 10.63525l0 0c-0.7128124 0.70723724 -1.6784883 1.103447 -2.684589 1.101471c-1.0061007 -0.0019760132 -1.9702117 -0.40197754 -2.6802402 -1.1120071l0 0l0 0c-1.4785576 -1.4785614 -1.4738573 -3.8710556 0.010498524 -5.343788l10.71916 -10.635258c1.4843559 -1.4727364 3.8862705 -1.4680176 5.364828 0.010540009z" fill-rule="evenodd"/><path fill="#0d3b66" d="m1.9527559 1.8740157l0 0c1.4785576 -1.4785576 3.8698773 -1.4726907 5.341162 0.013103962l10.640509 10.745446l0 0c0.70653725 0.71350384 1.1020775 1.679842 1.0996075 2.686431c-0.0024700165 1.0065899 -0.4027462 1.9709759 -1.1127758 2.6810036l0 0l0 0c-1.4785576 1.4785576 -3.8698769 1.4726906 -5.3411617 -0.013103485l-10.64051 -10.745446c-1.4712849 -1.4857945 -1.4653893 -3.888877 0.013168335 -5.3674345z" fill-rule="evenodd"/><path fill="#0d3b66" d="m58.645668 58.56693l0 0c1.4785576 -1.4785576 3.8698769 -1.4726906 5.3411636 0.013103485l10.640511 10.745445l0 0c0.70653534 0.7135086 1.1020737 1.6798401 1.0996094 2.686432c-0.0024719238 1.0065918 -0.4027481 1.9709778 -1.1127777 2.6810074l0 0l0 0c-1.4785614 1.4785538 -3.8698807 1.4726868 -5.3411636 -0.0131073l-10.640511 -10.745445c-1.471283 -1.4857941 -1.4653893 -3.8888779 0.013168335 -5.3674355z" fill-rule="evenodd"/></g></svg>